<svg width="130" height="130" viewBox="0 0 130 130" fill="none" xmlns="http://www.w3.org/2000/svg">
<rect width="130" height="130" rx="65" fill="white"/>
<path d="M72.5833 62.833C74.3782 62.833 75.8333 61.3779 75.8333 59.583C75.8333 57.7881 74.3782 56.333 72.5833 56.333C70.7883 56.333 69.3333 57.7881 69.3333 59.583C69.3333 61.3779 70.7883 62.833 72.5833 62.833Z" fill="#323232"/>
<path d="M57.4167 62.833C59.2117 62.833 60.6667 61.3779 60.6667 59.583C60.6667 57.7881 59.2117 56.333 57.4167 56.333C55.6218 56.333 54.1667 57.7881 54.1667 59.583C54.1667 61.3779 55.6218 62.833 57.4167 62.833Z" fill="#323232"/>
<path d="M72.5833 62.833C74.3782 62.833 75.8333 61.3779 75.8333 59.583C75.8333 57.7881 74.3782 56.333 72.5833 56.333C70.7883 56.333 69.3333 57.7881 69.3333 59.583C69.3333 61.3779 70.7883 62.833 72.5833 62.833Z" fill="#323232"/>
<path d="M57.4167 62.833C59.2117 62.833 60.6667 61.3779 60.6667 59.583C60.6667 57.7881 59.2117 56.333 57.4167 56.333C55.6218 56.333 54.1667 57.7881 54.1667 59.583C54.1667 61.3779 55.6218 62.833 57.4167 62.833Z" fill="#323232"/>
<path d="M64.9783 43.333C53.0183 43.333 43.3333 53.0397 43.3333 64.9997C43.3333 76.9597 53.0183 86.6663 64.9783 86.6663C76.9599 86.6663 86.6666 76.9597 86.6666 64.9997C86.6666 53.0397 76.9599 43.333 64.9783 43.333ZM64.9999 82.333C55.4233 82.333 47.6666 74.5763 47.6666 64.9997C47.6666 55.423 55.4233 47.6663 64.9999 47.6663C74.5766 47.6663 82.3333 55.423 82.3333 64.9997C82.3333 74.5763 74.5766 82.333 64.9999 82.333ZM64.9999 76.9163C70.0483 76.9163 74.3599 73.7747 76.0933 69.333H72.4749C70.9799 71.9113 68.2066 73.6663 64.9999 73.6663C61.7933 73.6663 59.0416 71.9113 57.5249 69.333H53.9066C55.6399 73.7747 59.9516 76.9163 64.9999 76.9163Z" fill="#323232"/>
</svg>
