<svg width="18" height="18" viewBox="0 0 18 18" fill="none" xmlns="http://www.w3.org/2000/svg">
<path d="M15.9609 16.3125C16.2778 16.3121 16.5817 16.1861 16.8058 15.962C17.0298 15.7379 17.1559 15.4341 17.1562 15.1172V2.88281C17.1559 2.5659 17.0298 2.26208 16.8058 2.03799C16.5817 1.8139 16.2778 1.68785 15.9609 1.6875H8.78906C8.47215 1.68785 8.16833 1.8139 7.94424 2.03799C7.72015 2.26208 7.5941 2.5659 7.59375 2.88281V9.5625H1.75781C1.59004 9.5627 1.4292 9.62943 1.31056 9.74806C1.19193 9.8667 1.1252 10.0275 1.125 10.1953V15.6797C1.1252 15.8475 1.19193 16.0083 1.31056 16.1269C1.4292 16.2456 1.59004 16.3123 1.75781 16.3125H15.9609ZM7.875 15.75V15.1875H10.125C10.1996 15.1875 10.2711 15.1579 10.3239 15.1051C10.3766 15.0524 10.4062 14.9808 10.4062 14.9062C10.4064 14.7571 10.4657 14.6141 10.5712 14.5087C10.6766 14.4032 10.8196 14.3439 10.9688 14.3438C11.0433 14.3437 11.1149 14.3141 11.1676 14.2614C11.2204 14.2086 11.25 14.1371 11.25 14.0625V11.8125C11.25 11.7379 11.2204 11.6664 11.1676 11.6136C11.1149 11.5609 11.0433 11.5312 10.9688 11.5312C10.8196 11.5311 10.6767 11.4717 10.5712 11.3663C10.4658 11.2608 10.4064 11.1179 10.4062 10.9688C10.4062 10.8942 10.3766 10.8226 10.3239 10.7699C10.2711 10.7171 10.1996 10.6875 10.125 10.6875H7.875V10.125H11.7422C11.7608 10.125 11.7787 10.1324 11.7919 10.1456C11.8051 10.1588 11.8125 10.1767 11.8125 10.1953V15.6797C11.8125 15.6983 11.8051 15.7162 11.7919 15.7294C11.7787 15.7426 11.7608 15.75 11.7422 15.75H7.875ZM7.875 14.1969V11.6806C8.0514 11.8392 8.1926 12.0329 8.28949 12.2494C8.38637 12.4659 8.4368 12.7003 8.4375 12.9375C8.43849 13.1753 8.38884 13.4106 8.29186 13.6278C8.19487 13.8449 8.05277 14.0389 7.875 14.1969ZM9 12.9375C8.99904 12.6183 8.93054 12.3029 8.799 12.0121C8.66746 11.7212 8.47586 11.4615 8.23679 11.25H9.87936C9.92999 11.4444 10.0316 11.6218 10.1736 11.7639C10.3157 11.9059 10.4931 12.0075 10.6875 12.0581V13.8169C10.4931 13.8675 10.3157 13.9691 10.1736 14.1111C10.0316 14.2532 9.92998 14.4306 9.87936 14.625H8.24038C8.48024 14.4143 8.67215 14.1547 8.80319 13.8636C8.93423 13.5725 9.00134 13.2567 9 12.9375V12.9375ZM9.28125 9C9.28125 8.88875 9.31424 8.77999 9.37605 8.68749C9.43786 8.59499 9.52571 8.52289 9.62849 8.48032C9.73127 8.43774 9.84437 8.4266 9.95349 8.44831C10.0626 8.47001 10.1628 8.52359 10.2415 8.60225C10.3202 8.68092 10.3737 8.78115 10.3954 8.89026C10.4171 8.99938 10.406 9.11248 10.3634 9.21526C10.3209 9.31804 10.2488 9.40589 10.1563 9.4677C10.0638 9.52951 9.955 9.5625 9.84375 9.5625C9.69462 9.56232 9.55165 9.503 9.4462 9.39755C9.34075 9.2921 9.28143 9.14913 9.28125 9ZM11.8125 9C11.8125 8.88875 11.8455 8.77999 11.9073 8.68749C11.9691 8.59499 12.057 8.52289 12.1597 8.48032C12.2625 8.43774 12.3756 8.4266 12.4847 8.44831C12.5939 8.47001 12.6941 8.52359 12.7727 8.60225C12.8514 8.68092 12.905 8.78115 12.9267 8.89026C12.9484 8.99938 12.9373 9.11248 12.8947 9.21526C12.8521 9.31804 12.78 9.40589 12.6875 9.4677C12.595 9.52951 12.4863 9.5625 12.375 9.5625C12.2259 9.56232 12.0829 9.503 11.9774 9.39755C11.872 9.2921 11.8127 9.14913 11.8125 9ZM12.375 13.5C12.5242 13.5 12.6673 13.5593 12.7727 13.6648C12.8782 13.7702 12.9375 13.9133 12.9375 14.0625C12.9375 14.2117 12.8782 14.3548 12.7727 14.4602C12.6673 14.5657 12.5242 14.625 12.375 14.625V13.5ZM12.375 10.9688C12.5242 10.9688 12.6673 11.028 12.7727 11.1335C12.8782 11.239 12.9375 11.3821 12.9375 11.5312C12.9375 11.6804 12.8782 11.8235 12.7727 11.929C12.6673 12.0345 12.5242 12.0938 12.375 12.0938V10.9688ZM8.15625 2.88281C8.15645 2.71504 8.22318 2.5542 8.34181 2.43556C8.46045 2.31693 8.62129 2.2502 8.78906 2.25H15.9609C16.1287 2.2502 16.2896 2.31693 16.4082 2.43556C16.5268 2.5542 16.5936 2.71504 16.5938 2.88281V15.1172C16.5936 15.285 16.5268 15.4458 16.4082 15.5644C16.2896 15.6831 16.1287 15.7498 15.9609 15.75H12.3709C12.3735 15.7267 12.3749 15.7032 12.375 15.6797V15.1875C12.6734 15.1875 12.9595 15.069 13.1705 14.858C13.3815 14.647 13.5 14.3609 13.5 14.0625C13.5 13.7641 13.3815 13.478 13.1705 13.267C12.9595 13.056 12.6734 12.9375 12.375 12.9375V12.6562C12.6734 12.6562 12.9595 12.5377 13.1705 12.3267C13.3815 12.1158 13.5 11.8296 13.5 11.5312C13.5 11.2329 13.3815 10.9467 13.1705 10.7358C12.9595 10.5248 12.6734 10.4062 12.375 10.4062V10.1953C12.3749 10.1718 12.3735 10.1483 12.3709 10.125H12.375C12.6231 10.1253 12.8643 10.0438 13.0613 9.89294C13.2583 9.74213 13.3999 9.53052 13.4643 9.29094C13.5287 9.05137 13.5123 8.79724 13.4174 8.568C13.3226 8.33876 13.1548 8.14722 12.94 8.02312C12.7252 7.89903 12.4754 7.84931 12.2295 7.88168C11.9835 7.91406 11.7551 8.02672 11.5797 8.20218C11.4044 8.37763 11.2918 8.60608 11.2596 8.85205C11.2273 9.09801 11.2771 9.34775 11.4013 9.5625H10.8176C10.9166 9.3915 10.9688 9.19744 10.9689 8.99986C10.9691 8.80227 10.9172 8.60813 10.8185 8.43696C10.7198 8.26579 10.5778 8.12363 10.4067 8.02479C10.2356 7.92595 10.0415 7.87392 9.84393 7.87392C9.64634 7.87392 9.45224 7.92595 9.28115 8.02479C9.11007 8.12363 8.96803 8.26579 8.86933 8.43696C8.77064 8.60813 8.71876 8.80227 8.71893 8.99986C8.71909 9.19744 8.77129 9.3915 8.87027 9.5625H8.15625V2.88281ZM5.625 11.6806V14.1957C5.44804 14.0375 5.30646 13.8437 5.20953 13.627C5.1126 13.4103 5.0625 13.1756 5.0625 12.9382C5.0625 12.7008 5.1126 12.4661 5.20953 12.2494C5.30646 12.0327 5.44804 11.8389 5.625 11.6806V11.6806ZM4.5 12.9375C4.49971 13.2567 4.56746 13.5723 4.69874 13.8633C4.83002 14.1543 5.02182 14.414 5.26134 14.625H3.62064C3.57002 14.4306 3.46843 14.2532 3.32637 14.1111C3.18431 13.9691 3.00692 13.8675 2.8125 13.8169V12.0581C3.00692 12.0075 3.18431 11.9059 3.32637 11.7639C3.46843 11.6218 3.57002 11.4444 3.62064 11.25H5.26321C5.02414 11.4615 4.83254 11.7212 4.701 12.0121C4.56946 12.3029 4.50096 12.6183 4.5 12.9375V12.9375ZM1.6875 15.6797V10.1953C1.6875 10.1767 1.69491 10.1588 1.70809 10.1456C1.72128 10.1324 1.73916 10.125 1.75781 10.125H5.625V10.6875H3.375C3.30041 10.6875 3.22887 10.7171 3.17613 10.7699C3.12338 10.8226 3.09375 10.8942 3.09375 10.9688C3.09357 11.1179 3.03425 11.2609 2.9288 11.3663C2.82335 11.4718 2.68038 11.5311 2.53125 11.5312C2.45666 11.5313 2.38512 11.5609 2.33238 11.6136C2.27963 11.6664 2.25 11.7379 2.25 11.8125V14.0625C2.25 14.1371 2.27963 14.2086 2.33238 14.2614C2.38512 14.3141 2.45666 14.3438 2.53125 14.3438C2.68038 14.3439 2.82335 14.4032 2.9288 14.5087C3.03425 14.6141 3.09357 14.7571 3.09375 14.9062C3.09375 14.9808 3.12338 15.0524 3.17613 15.1051C3.22887 15.1579 3.30041 15.1875 3.375 15.1875H5.625V15.75H1.75781C1.73916 15.75 1.72128 15.7426 1.70809 15.7294C1.69491 15.7162 1.6875 15.6983 1.6875 15.6797ZM6.1875 15.75V10.125H7.3125V15.75H6.1875Z" fill="#193554"/>
<path d="M9 7.3125H15.75C15.8246 7.3125 15.8961 7.28287 15.9489 7.23012C16.0016 7.17738 16.0312 7.10584 16.0312 7.03125V3.09375C16.0312 3.01916 16.0016 2.94762 15.9489 2.89488C15.8961 2.84213 15.8246 2.8125 15.75 2.8125H9C8.92541 2.8125 8.85387 2.84213 8.80113 2.89488C8.74838 2.94762 8.71875 3.01916 8.71875 3.09375V7.03125C8.71875 7.10584 8.74838 7.17738 8.80113 7.23012C8.85387 7.28287 8.92541 7.3125 9 7.3125ZM9.28125 3.375H15.4688V6.75H9.28125V3.375Z" fill="#193554"/>
<path d="M14.9063 7.875C14.6838 7.875 14.4662 7.94098 14.2812 8.0646C14.0962 8.18822 13.952 8.36392 13.8669 8.56949C13.7817 8.77505 13.7595 9.00126 13.8029 9.21949C13.8463 9.43772 13.9534 9.63817 14.1108 9.79551C14.2681 9.95284 14.4685 10.06 14.6868 10.1034C14.905 10.1468 15.1312 10.1245 15.3368 10.0394C15.5423 9.95423 15.7181 9.81003 15.8417 9.62503C15.9653 9.44002 16.0313 9.22251 16.0313 9.00001C16.0309 8.70174 15.9123 8.41578 15.7014 8.20488C15.4905 7.99397 15.2045 7.87533 14.9063 7.875V7.875ZM14.9063 9.56251C14.795 9.56251 14.6863 9.52952 14.5937 9.46771C14.5012 9.4059 14.4291 9.31805 14.3866 9.21527C14.344 9.11248 14.3329 8.99938 14.3546 8.89027C14.3763 8.78115 14.4298 8.68092 14.5085 8.60226C14.5872 8.52359 14.6874 8.47002 14.7965 8.44831C14.9056 8.42661 15.0187 8.43775 15.1215 8.48032C15.2243 8.5229 15.3122 8.59499 15.374 8.6875C15.4358 8.78 15.4688 8.88875 15.4688 9.00001C15.4686 9.14914 15.4093 9.29211 15.3038 9.39756C15.1984 9.50301 15.0554 9.56233 14.9063 9.56251V9.56251Z" fill="#193554"/>
<path d="M14.9063 10.4062C14.6838 10.4062 14.4662 10.4722 14.2812 10.5958C14.0962 10.7195 13.952 10.8952 13.8669 11.1007C13.7817 11.3063 13.7595 11.5325 13.8029 11.7507C13.8463 11.969 13.9534 12.1694 14.1108 12.3268C14.2681 12.4841 14.4685 12.5912 14.6868 12.6346C14.905 12.6781 15.1312 12.6558 15.3368 12.5706C15.5423 12.4855 15.7181 12.3413 15.8417 12.1563C15.9653 11.9713 16.0313 11.7538 16.0313 11.5313C16.0309 11.233 15.9123 10.947 15.7014 10.7361C15.4905 10.5252 15.2045 10.4066 14.9063 10.4062V10.4062ZM14.9063 12.0938C14.795 12.0938 14.6863 12.0608 14.5937 11.999C14.5012 11.9372 14.4291 11.8493 14.3866 11.7465C14.344 11.6437 14.3329 11.5306 14.3546 11.4215C14.3763 11.3124 14.4298 11.2122 14.5085 11.1335C14.5872 11.0548 14.6874 11.0013 14.7965 10.9796C14.9056 10.9579 15.0187 10.969 15.1215 11.0116C15.2243 11.0541 15.3122 11.1262 15.374 11.2187C15.4358 11.3113 15.4688 11.42 15.4688 11.5313C15.4686 11.6804 15.4093 11.8234 15.3038 11.9288C15.1984 12.0343 15.0554 12.0936 14.9063 12.0938V12.0938Z" fill="#193554"/>
<path d="M14.9063 12.9375C14.6838 12.9375 14.4662 13.0035 14.2812 13.1271C14.0962 13.2507 13.952 13.4264 13.8669 13.632C13.7817 13.8376 13.7595 14.0638 13.8029 14.282C13.8463 14.5002 13.9534 14.7007 14.1108 14.858C14.2681 15.0153 14.4685 15.1225 14.6868 15.1659C14.905 15.2093 15.1312 15.187 15.3368 15.1019C15.5423 15.0167 15.7181 14.8725 15.8417 14.6875C15.9653 14.5025 16.0313 14.285 16.0313 14.0625C16.0309 13.7642 15.9123 13.4783 15.7014 13.2674C15.4905 13.0565 15.2045 12.9378 14.9063 12.9375V12.9375ZM14.9063 14.625C14.795 14.625 14.6863 14.592 14.5937 14.5302C14.5012 14.4684 14.4291 14.3806 14.3866 14.2778C14.344 14.175 14.3329 14.0619 14.3546 13.9528C14.3763 13.8437 14.4298 13.7434 14.5085 13.6648C14.5872 13.5861 14.6874 13.5325 14.7965 13.5108C14.9056 13.4891 15.0187 13.5002 15.1215 13.5428C15.2243 13.5854 15.3122 13.6575 15.374 13.75C15.4358 13.8425 15.4688 13.9513 15.4688 14.0625C15.4686 14.2116 15.4093 14.3546 15.3038 14.4601C15.1984 14.5655 15.0554 14.6248 14.9063 14.625Z" fill="#193554"/>
<path d="M13.6986 4.01988C13.6725 3.99376 13.6415 3.97305 13.6074 3.95891C13.5733 3.94478 13.5367 3.9375 13.4998 3.9375C13.4628 3.9375 13.4263 3.94478 13.3921 3.95891C13.358 3.97305 13.327 3.99376 13.3009 4.01988L11.6134 5.70738C11.5873 5.7335 11.5665 5.7645 11.5524 5.79863C11.5383 5.83275 11.531 5.86932 11.531 5.90626C11.531 5.9432 11.5383 5.97977 11.5524 6.01389C11.5665 6.04802 11.5873 6.07902 11.6134 6.10514C11.6395 6.13126 11.6705 6.15197 11.7046 6.16611C11.7388 6.18024 11.7753 6.18752 11.8123 6.18752C11.8492 6.18752 11.8858 6.18024 11.9199 6.16611C11.954 6.15197 11.985 6.13126 12.0111 6.10514L13.6986 4.41764C13.7248 4.39152 13.7455 4.36052 13.7596 4.32639C13.7737 4.29227 13.781 4.2557 13.781 4.21876C13.781 4.18182 13.7737 4.14525 13.7596 4.11113C13.7455 4.077 13.7248 4.046 13.6986 4.01988V4.01988Z" fill="#A89060"/>
<path d="M11.7422 4.92188C12.014 4.92188 12.2344 4.70152 12.2344 4.42969C12.2344 4.15786 12.014 3.9375 11.7422 3.9375C11.4704 3.9375 11.25 4.15786 11.25 4.42969C11.25 4.70152 11.4704 4.92188 11.7422 4.92188Z" fill="#A89060"/>
<path d="M13.5703 6.1875C13.8421 6.1875 14.0625 5.96714 14.0625 5.69531C14.0625 5.42348 13.8421 5.20312 13.5703 5.20312C13.2985 5.20312 13.0781 5.42348 13.0781 5.69531C13.0781 5.96714 13.2985 6.1875 13.5703 6.1875Z" fill="#A89060"/>
<path d="M3.65625 13.2188C3.81158 13.2188 3.9375 13.0928 3.9375 12.9375C3.9375 12.7822 3.81158 12.6562 3.65625 12.6562C3.50092 12.6562 3.375 12.7822 3.375 12.9375C3.375 13.0928 3.50092 13.2188 3.65625 13.2188Z" fill="#193554"/>
<path d="M9.84375 13.1484C9.99908 13.1484 10.125 13.0225 10.125 12.8672C10.125 12.7119 9.99908 12.5859 9.84375 12.5859C9.68842 12.5859 9.5625 12.7119 9.5625 12.8672C9.5625 13.0225 9.68842 13.1484 9.84375 13.1484Z" fill="#193554"/>
</svg>
