<svg width="59" height="90" viewBox="0 0 59 90" fill="none" xmlns="http://www.w3.org/2000/svg">
<path d="M28.9844 89.2109C21.638 89.2109 15.3008 87.1322 9.97266 82.9746C4.64453 78.8171 1.61719 73.61 0.890625 67.3535H3.91797C4.64453 72.8027 7.38932 77.3438 12.1523 80.9766C16.9557 84.6094 22.5866 86.4258 29.0449 86.4258C36.6738 86.4258 43.0111 83.9434 48.0566 78.9785C53.1426 74.0137 55.6855 67.7975 55.6855 60.3301C55.6855 52.903 53.2031 46.6868 48.2383 41.6816C43.2734 36.6361 37.1178 34.1133 29.7715 34.1133C24.6855 34.1133 20.0033 35.3444 15.7246 37.8066C11.446 40.2285 8.05534 43.599 5.55273 47.918H2.2832L7.67188 0.630859H52.9004V3.47656H10.2754L5.79492 43.377H5.91602C8.41862 39.6634 11.8092 36.737 16.0879 34.5977C20.3665 32.418 24.9479 31.3281 29.832 31.3281C38.0664 31.3281 44.9284 34.0931 50.418 39.623C55.9479 45.153 58.7129 52.0352 58.7129 60.2695C58.7129 68.5846 55.8874 75.487 50.2363 80.9766C44.5853 86.4661 37.5013 89.2109 28.9844 89.2109Z" fill="#0D1C41"/>
</svg>
