<svg width="18" height="18" viewBox="0 0 18 18" fill="none" xmlns="http://www.w3.org/2000/svg">
<path d="M17.4727 2.11816H0.527344C0.236109 2.11816 0 2.35427 0 2.64551V5.82275C0 6.11399 0.236109 6.3501 0.527344 6.3501H1.05908V15.3545C1.05908 15.6457 1.29519 15.8818 1.58643 15.8818H16.4136C16.7048 15.8818 16.9409 15.6457 16.9409 15.3545V6.3501H17.4727C17.7639 6.3501 18 6.11399 18 5.82275V2.64551C18 2.35427 17.7639 2.11816 17.4727 2.11816ZM15.8862 14.8271H2.11377V6.3501H15.8862V14.8271ZM16.9453 5.29541H1.05469V3.17285H16.9453V5.29541Z" fill="#193554"/>
<path d="M7.94189 10.5879H10.0601C10.9348 10.5879 11.6465 9.87622 11.6465 9.00146C11.6465 8.12671 10.9348 7.41504 10.0601 7.41504H7.94189C7.06714 7.41504 6.35547 8.12671 6.35547 9.00146C6.35547 9.87622 7.06714 10.5879 7.94189 10.5879ZM7.94189 8.46973H10.0601C10.3533 8.46973 10.5918 8.70826 10.5918 9.00146C10.5918 9.29467 10.3533 9.5332 10.0601 9.5332H7.94189C7.64869 9.5332 7.41016 9.29467 7.41016 9.00146C7.41016 8.70826 7.64869 8.46973 7.94189 8.46973Z" fill="#A89060"/>
</svg>
