<svg width="18" height="18" viewBox="0 0 18 18" fill="none" xmlns="http://www.w3.org/2000/svg">
<g clip-path="url(#clip0_167_350)">
<path d="M6.69696 15.8555L12.6234 6.36328H9.32749L11.4369 2.14453H7.50035L5.74219 9.52734H8.32586L6.69696 15.8555Z" fill="#D82525"/>
<path d="M3.37894 10.5265L3.1956 9.48828L0 10.0378L0.18334 11.076L3.37894 10.5265Z" fill="#193554"/>
<path d="M14.6211 7.47527L14.8044 8.51347L18 7.96398L17.8167 6.92578L14.6211 7.47527Z" fill="#193554"/>
<path d="M3.71287 11.4453L0.9375 13.0273L1.46484 13.9409L4.24022 12.3589L3.71287 11.4453Z" fill="#193554"/>
<path d="M17.0644 4.97607L16.5371 4.0625L13.7617 5.64453L14.2891 6.5581L17.0644 4.97607Z" fill="#193554"/>
<path d="M4.24022 5.64453L1.46484 4.0625L0.9375 4.97607L3.71287 6.5581L4.24022 5.64453Z" fill="#193554"/>
<path d="M17.0644 13.0273L14.2891 11.4453L13.7617 12.3589L16.5371 13.9409L17.0644 13.0273Z" fill="#193554"/>
<path d="M3.37894 7.47527L0.18334 6.92578L0 7.96398L3.1956 8.51347L3.37894 7.47527Z" fill="#193554"/>
<path d="M14.6204 10.5265L17.816 11.076L17.9993 10.0378L14.8037 9.48828L14.6204 10.5265Z" fill="#193554"/>
</g>
<defs>
<clipPath id="clip0_167_350">
<rect width="18" height="18" fill="white"/>
</clipPath>
</defs>
</svg>
