<svg width="16" height="16" viewBox="0 0 16 16" fill="none" xmlns="http://www.w3.org/2000/svg">
<path d="M12.3367 11.8451C11.5599 11.5824 10.8511 11.2019 10.227 10.7374C10.0316 10.5869 9.76608 10.5604 9.5379 10.6733L8.12562 11.582C6.62677 10.125 5.4979 7.94857 5.23329 5.79704L6.81933 5.16522C7.04964 5.04607 7.18347 4.81686 7.18876 4.57233C7.19219 3.79231 7.32638 3.00022 7.5891 2.22344C7.70444 1.88242 7.51637 1.50212 7.17535 1.38678L4.99028 0.647734C4.64926 0.532392 4.18751 0.54512 4.02731 1.01876C2.043 6.88561 5.27572 13.4121 11.1363 15.3942C11.5846 15.5459 11.896 15.2078 12.0135 14.8605L12.7504 12.6817C12.8657 12.3407 12.6777 11.9604 12.3367 11.8451Z" fill="#4A607A"/>
</svg>
