<svg width="34" height="34" viewBox="0 0 34 34" fill="none" xmlns="http://www.w3.org/2000/svg">
<path d="M17.0002 2.83398C9.18016 2.83398 2.8335 9.18065 2.8335 17.0007C2.8335 24.8207 9.18016 31.1673 17.0002 31.1673C24.8202 31.1673 31.1668 24.8207 31.1668 17.0007C31.1668 9.18065 24.8202 2.83398 17.0002 2.83398ZM17.0002 7.08398C19.3518 7.08398 21.2502 8.98232 21.2502 11.334C21.2502 13.6857 19.3518 15.584 17.0002 15.584C14.6485 15.584 12.7502 13.6857 12.7502 11.334C12.7502 8.98232 14.6485 7.08398 17.0002 7.08398ZM17.0002 27.2007C13.4585 27.2007 10.3277 25.3873 8.50016 22.639C8.54266 19.8198 14.1668 18.2757 17.0002 18.2757C19.8193 18.2757 25.4577 19.8198 25.5002 22.639C23.6727 25.3873 20.5418 27.2007 17.0002 27.2007Z" fill="#A89060"/>
</svg>
