<svg width="34" height="34" viewBox="0 0 34 34" fill="none" xmlns="http://www.w3.org/2000/svg">
<path d="M17.0007 2.83301C9.18065 2.83301 2.83398 9.17967 2.83398 16.9997C2.83398 24.8197 9.18065 31.1663 17.0007 31.1663C24.8207 31.1663 31.1673 24.8197 31.1673 16.9997C31.1673 9.17967 24.8207 2.83301 17.0007 2.83301ZM17.0007 7.08301C19.3523 7.08301 21.2507 8.98134 21.2507 11.333C21.2507 13.6847 19.3523 15.583 17.0007 15.583C14.649 15.583 12.7507 13.6847 12.7507 11.333C12.7507 8.98134 14.649 7.08301 17.0007 7.08301ZM17.0007 27.1997C13.459 27.1997 10.3282 25.3863 8.50065 22.638C8.54315 19.8188 14.1673 18.2747 17.0007 18.2747C19.8198 18.2747 25.4582 19.8188 25.5007 22.638C23.6732 25.3863 20.5423 27.1997 17.0007 27.1997Z" fill="#323232"/>
</svg>
